<svg width="215" height="30" viewBox="0 0 215 30" fill="none" xmlns="http://www.w3.org/2000/svg">
<path d="M3.239 5.951C4.386 6.075 5.812 6.137 6.897 6.137C9.501 6.137 18.026 6.137 19.731 6.137C20.971 6.137 22.273 6.075 23.172 5.951V10.446C22.273 10.415 20.816 10.353 19.731 10.353C18.088 10.353 8.633 10.353 6.897 10.353C5.719 10.353 4.293 10.415 3.239 10.446V5.951ZM0.635 21.141C1.844 21.203 3.301 21.327 4.541 21.327C6.494 21.327 20.382 21.327 22.335 21.327C23.358 21.327 24.691 21.234 25.745 21.141V25.884C24.629 25.76 23.234 25.667 22.335 25.667C20.382 25.667 6.494 25.667 4.541 25.667C3.301 25.667 1.813 25.76 0.635 25.884V21.141ZM33.836 4.99C35.014 5.114 36.595 5.207 37.68 5.207H53.304C54.203 5.207 55.474 5.145 56.001 5.114C55.97 5.858 55.908 7.067 55.908 7.997V24.055C55.908 25.14 56.001 26.752 56.063 27.713H51.568C51.599 26.783 51.63 25.667 51.63 24.52V9.206H37.68C36.378 9.206 34.704 9.268 33.836 9.33V4.99ZM33.464 21.823C34.518 21.916 35.913 22.009 37.308 22.009H54.079V26.101H37.432C36.223 26.101 34.487 26.163 33.464 26.287V21.823ZM65.239 5.951C66.386 6.075 67.812 6.137 68.897 6.137C71.501 6.137 80.026 6.137 81.731 6.137C82.971 6.137 84.273 6.075 85.172 5.951V10.446C84.273 10.415 82.816 10.353 81.731 10.353C80.088 10.353 70.633 10.353 68.897 10.353C67.719 10.353 66.293 10.415 65.239 10.446V5.951ZM62.635 21.141C63.844 21.203 65.301 21.327 66.541 21.327C68.494 21.327 82.382 21.327 84.335 21.327C85.358 21.327 86.691 21.234 87.745 21.141V25.884C86.629 25.76 85.234 25.667 84.335 25.667C82.382 25.667 68.494 25.667 66.541 25.667C65.301 25.667 63.813 25.76 62.635 25.884V21.141ZM95.836 4.99C97.014 5.114 98.595 5.207 99.68 5.207H115.304C116.203 5.207 117.474 5.145 118.001 5.114C117.97 5.858 117.908 7.067 117.908 7.997V24.055C117.908 25.14 118.001 26.752 118.063 27.713H113.568C113.599 26.783 113.63 25.667 113.63 24.52V9.206H99.68C98.378 9.206 96.704 9.268 95.836 9.33V4.99ZM95.464 21.823C96.518 21.916 97.913 22.009 99.308 22.009H116.079V26.101H99.432C98.223 26.101 96.487 26.163 95.464 26.287V21.823ZM129.316 12.771V24.148H125.968V16.119H123.085V12.771H129.316ZM129.316 22.908C130.556 24.985 132.881 25.946 136.105 26.07C140.011 26.256 147.854 26.163 152.318 25.791C151.915 26.597 151.357 28.178 151.202 29.17C147.172 29.356 140.104 29.418 136.136 29.263C132.323 29.108 129.781 28.178 127.89 25.791C126.836 27 125.689 28.209 124.325 29.573L122.62 26.132C123.798 25.233 125.131 24.086 126.309 22.908H129.316ZM122.899 3.192L125.906 1.456C127.425 3.006 129.161 5.207 129.874 6.757L126.619 8.679C125.999 7.129 124.387 4.835 122.899 3.192ZM131.331 1.859H134.431V7.222C134.431 11.562 133.842 18.103 130.649 22.35C130.215 21.699 128.944 20.428 128.293 20.056C131.052 16.243 131.331 10.942 131.331 7.16V1.859ZM133.222 1.859H140.011V11.097H133.222V8.276H136.88V4.68H133.222V1.859ZM133.78 13.577H140.383V23.125H133.78V20.304H137.283V16.398H133.78V13.577ZM132.23 13.577H135.237V24.551H132.23V13.577ZM140.91 4.06H151.419V6.974H140.91V4.06ZM140.972 16.863H151.388V19.777H140.972V16.863ZM140.693 11.5H151.636V14.445H140.693V11.5ZM144.506 0.680999H147.885V5.548H144.506V0.680999ZM144.506 12.554H147.885V24.923H144.506V12.554ZM141.902 7.377L144.475 6.819C144.971 8.121 145.374 9.888 145.436 11.004L142.708 11.655C142.677 10.477 142.367 8.741 141.902 7.377ZM147.823 6.695L150.83 7.377C150.241 8.927 149.683 10.601 149.249 11.717L146.831 11.066C147.172 9.857 147.637 7.997 147.823 6.695ZM155.077 16.46H167.725V19.157H155.077V16.46ZM153.961 20.49H168.5V23.373H153.961V20.49ZM154.178 3.192H168.5V6.075H154.178V3.192ZM156.72 0.680999H159.944V7.718H156.72V0.680999ZM162.858 0.680999H166.051V7.718H162.858V0.680999ZM159.727 9.113H162.703V14.104H159.727V9.113ZM157.743 10.632V12.833H164.718V10.632H157.743ZM154.953 8.245H167.694V15.251H154.953V8.245ZM161.649 22.846C163.013 23.466 167.105 25.915 168.19 26.628L166.051 29.635C164.532 28.302 161.339 25.853 159.634 24.737L161.649 22.846ZM159.572 13.732H162.982V19.25C162.982 23.032 161.928 27.279 155.945 29.883C155.48 29.139 154.457 28.023 153.682 27.372C158.766 25.419 159.572 21.823 159.572 19.219V13.732ZM170.825 12.678H182.543V15.809H170.825V12.678ZM170.825 18.785H182.543V21.916H170.825V18.785ZM170.701 24.985H183.101V28.364H170.701V24.985ZM171.693 0.680999L175.103 1.456C173.832 6.292 171.724 11.221 169.461 14.383C168.872 13.763 167.477 12.554 166.702 11.996C168.872 9.299 170.639 4.928 171.693 0.680999ZM177.552 1.022L181.117 1.797C180.249 4.184 179.226 6.726 178.358 8.4L175.351 7.594C176.188 5.827 177.087 3.037 177.552 1.022ZM173.119 6.447H182.76V9.764H173.119V29.821H169.771V10.012L173.057 6.447H173.119ZM175.785 8.028H179.102V26.659H175.785V8.028ZM185.643 2.2H199.407V5.579H185.643V2.2ZM201.949 11.19H214.132V14.755H201.949V11.19ZM207.653 13.701H211.342V29.821H207.653V13.701ZM200.461 3.44L204.925 4.494C204.894 4.804 204.677 4.959 204.119 5.052V12.089C204.119 17.111 203.406 24.768 198.477 29.759C197.981 28.953 196.586 27.682 195.718 27.248C200.058 22.846 200.461 16.677 200.461 12.058V3.44ZM186.635 7.904H190.169V15.84C190.169 20.025 189.735 26.039 187.317 29.852C186.728 29.201 185.178 28.023 184.403 27.62C186.449 24.272 186.635 19.405 186.635 15.809V7.904ZM210.66 0.990999L213.915 3.781C210.598 5.424 206.227 6.695 202.445 7.532C202.228 6.695 201.639 5.331 201.174 4.556C204.646 3.688 208.428 2.324 210.66 0.990999ZM188.681 7.904H198.756V18.506H188.681V15.189H195.16V11.252H188.681V7.904Z" fill="white"/>
</svg>
