<svg width="101" height="100" viewBox="0 0 101 100" fill="none" xmlns="http://www.w3.org/2000/svg">
<path d="M56.1344 9.79013C53.3602 5.06996 46.6591 5.06996 43.8849 9.79013L1.02891 82.7068C-1.82754 87.5669 1.60174 93.75 7.15369 93.75H92.8656C98.4176 93.75 101.847 87.5669 98.9904 82.7068L56.1344 9.79013ZM50 31.25C53.3463 31.25 55.9611 34.1393 55.6281 37.469L53.436 59.3905C53.2594 61.1557 51.774 62.5 50 62.5C48.226 62.5 46.7406 61.1557 46.5641 59.3905L44.3719 37.469C44.0389 34.1393 46.6537 31.25 50 31.25ZM50.0096 68.75C53.4614 68.75 56.2596 71.5482 56.2596 75C56.2596 78.4518 53.4614 81.25 50.0096 81.25C46.5579 81.25 43.7596 78.4518 43.7596 75C43.7596 71.5482 46.5579 68.75 50.0096 68.75Z" fill="white"/>
</svg>
